REM DIRINDEX 1\2,1\3,1\4,1\5
REM DIRNAME "folder01","folder02","folder03","folder04","folder05"
TITLE ""
FILE "DISC1Track27.mp3" MP3
  TRACK 01 AUDIO
    TITLE "2:cjc158_1019"
    INDEX 01 00:00:00
  TRACK 02 AUDIO
    TITLE "0:"
    INDEX 01 00:05:55
  TRACK 03 AUDIO
    TITLE "3:cjc158_1020"
    INDEX 01 00:06:01
  TRACK 04 AUDIO
    TITLE "4:cjc158_1021"
    INDEX 01 00:08:47
  TRACK 05 AUDIO
    TITLE "5:cjc158_1022"
    INDEX 01 00:11:10
  TRACK 06 AUDIO
    TITLE "0:"
    INDEX 01 00:13:42
  TRACK 07 AUDIO
    TITLE "3:cjc158_1023"
    INDEX 01 00:13:66
  TRACK 08 AUDIO
    TITLE "4:cjc158_1024"
    INDEX 01 00:15:20
  TRACK 09 AUDIO
    TITLE "5:cjc158_1025"
    INDEX 01 00:16:54
  TRACK 10 AUDIO
    TITLE "0:"
    INDEX 01 00:18:04
  TRACK 11 AUDIO
    TITLE "3:cjc158_1026"
    INDEX 01 00:18:28
  TRACK 12 AUDIO
    TITLE "4:cjc158_1027"
    INDEX 01 00:20:64
  TRACK 13 AUDIO
    TITLE "5:cjc158_1028"
    INDEX 01 00:23:60
  TRACK 14 AUDIO
    TITLE "0:"
    INDEX 01 00:26:49
  TRACK 15 AUDIO
    TITLE "3:cjc158_1029"
    INDEX 01 00:26:74
  TRACK 16 AUDIO
    TITLE "4:cjc158_1030"
    INDEX 01 00:28:20
  TRACK 17 AUDIO
    TITLE "5:cjc158_1031"
    INDEX 01 00:29:43
  TRACK 18 AUDIO
    TITLE "0:"
    INDEX 01 00:30:58
  TRACK 19 AUDIO
    TITLE "3:cjc158_1032"
    INDEX 01 00:31:09
  TRACK 20 AUDIO
    TITLE "4:cjc158_1033"
    INDEX 01 00:33:55
  TRACK 21 AUDIO
    TITLE "5:cjc158_1034"
    INDEX 01 00:36:12
  TRACK 22 AUDIO
    TITLE "0:"
    INDEX 01 00:38:38
  TRACK 23 AUDIO
    TITLE "3:cjc158_1035"
    INDEX 01 00:38:62
  TRACK 24 AUDIO
    TITLE "4:cjc158_1036"
    INDEX 01 00:39:73
  TRACK 25 AUDIO
    TITLE "5:cjc158_1037"
    INDEX 01 00:41:25
  TRACK 26 AUDIO
    TITLE "0:"
    INDEX 01 00:42:46
  TRACK 27 AUDIO
    TITLE "3:cjc158_1038"
    INDEX 01 00:42:69
  TRACK 28 AUDIO
    TITLE "4:cjc158_1039"
    INDEX 01 00:45:46
  TRACK 29 AUDIO
    TITLE "5:cjc158_1040"
    INDEX 01 00:48:45
  TRACK 30 AUDIO
    TITLE "0:"
    INDEX 01 00:51:37
  TRACK 31 AUDIO
    TITLE "3:cjc158_1041"
    INDEX 01 00:51:61
  TRACK 32 AUDIO
    TITLE "4:cjc158_1042"
    INDEX 01 00:53:36
  TRACK 33 AUDIO
    TITLE "5:cjc158_1043"
    INDEX 01 00:54:73
  TRACK 34 AUDIO
    TITLE "0:"
    INDEX 01 00:56:25
  TRACK 35 AUDIO
    TITLE "3:cjc158_1044"
    INDEX 01 00:56:50
  TRACK 36 AUDIO
    TITLE "4:cjc158_1045"
    INDEX 01 00:59:44
  TRACK 37 AUDIO
    TITLE "5:cjc158_1046"
    INDEX 01 01:01:65
  TRACK 38 AUDIO
    TITLE "0:"
    INDEX 01 01:04:01
  TRACK 39 AUDIO
    TITLE "3:cjc158_1047"
    INDEX 01 01:04:26
  TRACK 40 AUDIO
    TITLE "4:cjc158_1048"
    INDEX 01 01:05:72
  TRACK 41 AUDIO
    TITLE "5:cjc158_1049"
    INDEX 01 01:07:64
  TRACK 42 AUDIO
    TITLE "0:"
    INDEX 01 01:09:49
  TRACK 43 AUDIO
    TITLE "3:cjc158_1050"
    INDEX 01 01:09:74
  TRACK 44 AUDIO
    TITLE "4:cjc158_1051"
    INDEX 01 01:12:04
  TRACK 45 AUDIO
    TITLE "5:cjc158_1052"
    INDEX 01 01:14:11
  TRACK 46 AUDIO
    TITLE "0:"
    INDEX 01 01:16:12
  TRACK 47 AUDIO
    TITLE "3:cjc158_1053"
    INDEX 01 01:16:35
  TRACK 48 AUDIO
    TITLE "4:cjc158_1054"
    INDEX 01 01:20:33
  TRACK 49 AUDIO
    TITLE "5:cjc158_1055"
    INDEX 01 01:23:04
  TRACK 50 AUDIO
    TITLE "0:"
    INDEX 01 01:25:46
  TRACK 51 AUDIO
    TITLE "3:cjc158_1056"
    INDEX 01 01:25:71
  TRACK 52 AUDIO
    TITLE "4:cjc158_1057"
    INDEX 01 01:27:39
  TRACK 53 AUDIO
    TITLE "5:cjc158_1058"
    INDEX 01 01:29:10
  TRACK 54 AUDIO
    TITLE "0:"
    INDEX 01 01:30:55
  TRACK 55 AUDIO
    TITLE "3:cjc158_1059"
    INDEX 01 01:31:01
  TRACK 56 AUDIO
    TITLE "4:cjc158_1060"
    INDEX 01 01:32:61
  TRACK 57 AUDIO
    TITLE "5:cjc158_1061"
    INDEX 01 01:35:13
  TRACK 58 AUDIO
    TITLE "0:"
    INDEX 01 01:37:31
  TRACK 59 AUDIO
    TITLE "3:cjc158_1062"
    INDEX 01 01:37:57
  TRACK 60 AUDIO
    TITLE "4:cjc158_1063"
    INDEX 01 01:39:30
  TRACK 61 AUDIO
    TITLE "5:cjc158_1064"
    INDEX 01 01:41:25
  TRACK 62 AUDIO
    TITLE "0:"
    INDEX 01 01:43:22
  TRACK 63 AUDIO
    TITLE "3:cjc158_1065"
    INDEX 01 01:43:46
  TRACK 64 AUDIO
    TITLE "4:cjc158_1066"
    INDEX 01 01:45:72
  TRACK 65 AUDIO
    TITLE "5:cjc158_1067"
    INDEX 01 01:48:60
  TRACK 66 AUDIO
    TITLE "0:"
    INDEX 01 01:51:39
  TRACK 67 AUDIO
    TITLE "3:cjc158_1068"
    INDEX 01 01:51:61
  TRACK 68 AUDIO
    TITLE "4:cjc158_1069"
    INDEX 01 01:52:74
  TRACK 69 AUDIO
    TITLE "5:cjc158_1070"
    INDEX 01 01:54:32
  TRACK 70 AUDIO
    TITLE "0:"
    INDEX 01 01:55:57
  TRACK 71 AUDIO
    TITLE "3:cjc158_1071"
    INDEX 01 01:56:07
  TRACK 72 AUDIO
    TITLE "4:cjc158_1072"
    INDEX 01 01:58:65
  TRACK 73 AUDIO
    TITLE "5:cjc158_1073"
    INDEX 01 02:01:45
  TRACK 74 AUDIO
    TITLE "0:"
    INDEX 01 02:04:18
  TRACK 75 AUDIO
    TITLE "3:cjc158_1074"
    INDEX 01 02:04:42
  TRACK 76 AUDIO
    TITLE "4:cjc158_1075"
    INDEX 01 02:06:17
  TRACK 77 AUDIO
    TITLE "5:cjc158_1076"
    INDEX 01 02:07:46
  TRACK 78 AUDIO
    TITLE "0:"
    INDEX 01 02:09:53
